<?xml version="1.0" encoding="UTF-8" standalone="no"?>
<!-- Created with Inkscape (http://www.inkscape.org/) -->

<svg
   version="1.1"
   id="svg9"
   width="325.284"
   height="305.29999"
   viewBox="0 0 325.284 305.29999"
   sodipodi:docname="bob_bi_basic.svg"
   inkscape:version="1.2.2 (732a01da63, 2022-12-09)"
   xmlns:inkscape="http://www.inkscape.org/namespaces/inkscape"
   xmlns:sodipodi="http://sodipodi.sourceforge.net/DTD/sodipodi-0.dtd"
   xmlns="http://www.w3.org/2000/svg"
   xmlns:svg="http://www.w3.org/2000/svg">
  <defs
     id="defs13">
    <clipPath
       clipPathUnits="userSpaceOnUse"
       id="clipPath25">
      <path
         d="M 0,228.975 H 243.963 V 0 H 0 Z"
         id="path23" />
    </clipPath>
    <clipPath
       clipPathUnits="userSpaceOnUse"
       id="clipPath97">
      <path
         d="M 92.911,151.515 79.229,137.686 c -1.137,-1.145 -1.75,-2.705 -1.711,-4.318 v 0 c 0.043,-1.614 0.743,-3.137 1.933,-4.224 v 0 c 3.674,-3.346 5.352,-6.897 5.447,-11.505 v 0 c 0.047,-2.301 -0.835,-3.501 -2.845,-5.985 v 0 c -2.098,-2.613 -4.978,-6.183 -5.209,-11.749 v 0 C 75.877,76.711 101.377,56.992 118.753,49.394 v 0 c 0.753,-0.33 1.555,-0.493 2.358,-0.495 v 0 c 0.835,-0.004 1.671,0.17 2.446,0.52 v 0 c 19.935,8.987 42.909,27.544 42.077,50.266 v 0 c -0.205,5.566 -3.071,9.151 -5.157,11.774 v 0 c -1.994,2.497 -2.871,3.696 -2.812,5.997 v 0 c 0.12,4.611 1.813,8.152 5.508,11.477 v 0 c 1.198,1.084 1.899,2.603 1.948,4.217 v 0 c 0.052,1.612 -0.557,3.173 -1.687,4.328 v 0 l -13.612,13.893 c -1.11,1.134 -2.631,1.776 -4.216,1.78 v 0 l -48.471,0.121 c -0.005,0 -0.011,0 -0.017,0 v 0 c -1.582,0 -3.093,-0.635 -4.207,-1.757"
         id="path95" />
    </clipPath>
    <linearGradient
       x1="0"
       y1="0"
       x2="1"
       y2="0"
       gradientUnits="userSpaceOnUse"
       gradientTransform="matrix(-0.184021,-76.672836,-76.672836,0.184021,121.34082,141.77246)"
       spreadMethod="pad"
       id="linearGradient109">
      <stop
         style="stop-opacity:1;stop-color:#bfbcbb"
         offset="0"
         id="stop103" />
      <stop
         style="stop-opacity:1;stop-color:#000000"
         offset="0.42380783"
         id="stop105" />
      <stop
         style="stop-opacity:1;stop-color:#000000"
         offset="1"
         id="stop107" />
    </linearGradient>
    <clipPath
       clipPathUnits="userSpaceOnUse"
       id="clipPath119">
      <path
         d="M 93.511,150.917 79.826,137.09 c -0.963,-0.982 -1.497,-2.318 -1.458,-3.702 v 0 c 0.035,-1.381 0.632,-2.688 1.655,-3.62 v 0 c 3.802,-3.47 5.625,-7.316 5.721,-12.114 v 0 c 0.053,-2.585 -1.002,-4.016 -3.029,-6.534 v 0 c -2.142,-2.657 -4.805,-5.963 -5.028,-11.252 v 0 C 76.738,77.101 101.93,57.672 119.09,50.167 v 0 c 0.647,-0.28 1.333,-0.424 2.021,-0.425 v 0 c 0.718,-0.002 1.433,0.148 2.101,0.451 v 0 c 19.687,8.877 42.392,27.157 41.575,49.46 v 0 c -0.196,5.29 -2.842,8.607 -4.971,11.276 v 0 c -2.016,2.525 -3.062,3.965 -2.997,6.549 v 0 c 0.122,4.796 1.959,8.635 5.786,12.086 v 0 c 1.028,0.925 1.631,2.23 1.669,3.609 v 0 c 0.044,1.384 -0.477,2.722 -1.444,3.711 v 0 l -13.611,13.896 c -0.952,0.972 -2.254,1.522 -3.613,1.524 v 0 l -48.477,0.121 c -0.006,0 -0.011,0 -0.017,0 v 0 c -1.353,0 -2.65,-0.543 -3.601,-1.508"
         id="path117" />
    </clipPath>
    <linearGradient
       x1="0"
       y1="0"
       x2="1"
       y2="0"
       gradientUnits="userSpaceOnUse"
       gradientTransform="matrix(-0.1810303,-75.430344,-75.430344,0.1810303,121.33789,141.11084)"
       spreadMethod="pad"
       id="linearGradient133">
      <stop
         style="stop-opacity:1;stop-color:#5280b1"
         offset="0"
         id="stop125" />
      <stop
         style="stop-opacity:1;stop-color:#5280b1"
         offset="0.14734542"
         id="stop127" />
      <stop
         style="stop-opacity:1;stop-color:#03649b"
         offset="0.584274"
         id="stop129" />
      <stop
         style="stop-opacity:1;stop-color:#074f89"
         offset="1"
         id="stop131" />
    </linearGradient>
    <clipPath
       clipPathUnits="userSpaceOnUse"
       id="clipPath143">
      <path
         d="M 95.315,149.133 81.636,135.308 c -0.488,-0.493 -0.752,-1.161 -0.735,-1.853 v 0 c 0.018,-0.692 0.317,-1.343 0.83,-1.809 v 0 c 4.353,-3.968 6.439,-8.4 6.55,-13.938 v 0 c 0.076,-3.631 -1.625,-5.74 -3.588,-8.181 v 0 c -2.01,-2.488 -4.283,-5.309 -4.472,-9.766 v 0 C 79.328,78.269 103.583,59.717 120.109,52.494 v 0 c 0.32,-0.143 0.666,-0.217 1.009,-0.217 v 0 c 0.36,0 0.717,0.079 1.054,0.228 v 0 c 20.47,9.228 40.799,27.359 40.081,47.053 v 0 c -0.168,4.456 -2.426,7.286 -4.421,9.788 v 0 c -1.954,2.45 -3.641,4.568 -3.55,8.197 v 0 c 0.14,5.541 2.25,9.959 6.62,13.905 v 0 c 0.516,0.462 0.814,1.115 0.838,1.806 v 0 c 0.023,0.691 -0.237,1.361 -0.72,1.856 v 0 l -13.614,13.894 c -0.476,0.487 -1.125,0.759 -1.806,0.76 v 0 l -48.477,0.121 c -0.68,0.001 -1.33,-0.268 -1.808,-0.752"
         id="path141" />
    </clipPath>
    <linearGradient
       x1="0"
       y1="0"
       x2="1"
       y2="0"
       gradientUnits="userSpaceOnUse"
       gradientTransform="matrix(-0.1720886,-71.700012,-71.700012,0.1720886,121.33301,139.12744)"
       spreadMethod="pad"
       id="linearGradient163">
      <stop
         style="stop-opacity:1;stop-color:#ffffff"
         offset="0"
         id="stop149" />
      <stop
         style="stop-opacity:1;stop-color:#ffffff"
         offset="0.13884526"
         id="stop151" />
      <stop
         style="stop-opacity:1;stop-color:#0f91d0"
         offset="0.550568"
         id="stop153" />
      <stop
         style="stop-opacity:1;stop-color:#107fc2"
         offset="0.556183"
         id="stop155" />
      <stop
         style="stop-opacity:1;stop-color:#056ba5"
         offset="0.80899"
         id="stop157" />
      <stop
         style="stop-opacity:1;stop-color:#005988"
         offset="0.994385"
         id="stop159" />
      <stop
         style="stop-opacity:1;stop-color:#005988"
         offset="1"
         id="stop161" />
    </linearGradient>
    <clipPath
       clipPathUnits="userSpaceOnUse"
       id="clipPath173">
      <path
         d="m 82.229,134.559 c 5.399,-4.918 7.497,-10.378 7.617,-16.267 v 0 c 0.178,-8.937 -7.987,-10.809 -8.318,-18.681 v 0 C 80.714,80.044 103.036,61.248 121.123,53.339 v 0 c 19.659,8.866 40.541,26.504 39.823,46.075 v 0 c -0.292,7.875 -8.452,9.782 -8.226,18.72 v 0 c 0.152,5.891 2.273,11.339 7.699,16.23 v 0 l -14.048,14.338 -50.024,0.126 z"
         id="path171" />
    </clipPath>
    <linearGradient
       x1="0"
       y1="0"
       x2="1"
       y2="0"
       gradientUnits="userSpaceOnUse"
       gradientTransform="matrix(77.349441,-0.1856384,-0.1856384,-77.349426,90.571289,101.12695)"
       spreadMethod="pad"
       id="linearGradient193">
      <stop
         style="stop-opacity:1;stop-color:#ceebf2"
         offset="0"
         id="stop179" />
      <stop
         style="stop-opacity:1;stop-color:#ceebf2"
         offset="0.10698717"
         id="stop181" />
      <stop
         style="stop-opacity:1;stop-color:#107fc2"
         offset="0.42424"
         id="stop183" />
      <stop
         style="stop-opacity:1;stop-color:#0f91d0"
         offset="0.550568"
         id="stop185" />
      <stop
         style="stop-opacity:1;stop-color:#056ba5"
         offset="0.80899"
         id="stop187" />
      <stop
         style="stop-opacity:1;stop-color:#005988"
         offset="0.994385"
         id="stop189" />
      <stop
         style="stop-opacity:1;stop-color:#005988"
         offset="1"
         id="stop191" />
    </linearGradient>
    <clipPath
       clipPathUnits="userSpaceOnUse"
       id="clipPath203">
      <path
         d="m 82.618,134.172 c 2.306,-2.183 3.982,-4.478 5.13,-6.862 v 0 l 29.15,21.467 -14.393,0.034 z m 7.137,-17.557 c -0.782,-7.428 -7.729,-9.59 -8.22,-16.695 v 0 l 65.422,48.17 -0.603,0.612 -12.97,0.033 z M 83.228,88.991 c 0.952,-2.663 2.261,-5.271 3.849,-7.801 v 0 l 72.861,53.646 -6.058,6.181 z m 9.796,-15.6 c 1.922,-2.122 4.009,-4.153 6.203,-6.072 v 0 l 56.792,41.818 c -1.691,2.204 -3.203,4.611 -3.317,8.194 v 0 z m 14.26,-12.316 c 2.61,-1.787 5.264,-3.4 7.894,-4.824 v 0 l 44.025,32.413 c 1.231,3.487 1.857,7.085 1.72,10.751 v 0 c -0.009,0.37 -0.053,0.731 -0.097,1.079 v 0 z"
         id="path201" />
    </clipPath>
    <linearGradient
       x1="0"
       y1="0"
       x2="1"
       y2="0"
       gradientUnits="userSpaceOnUse"
       gradientTransform="matrix(79.390625,0.651001,0.651001,-79.390625,81.514648,102.30762)"
       spreadMethod="pad"
       id="linearGradient219">
      <stop
         style="stop-opacity:1;stop-color:#97caed"
         offset="0"
         id="stop209" />
      <stop
         style="stop-opacity:1;stop-color:#97caed"
         offset="0.163635"
         id="stop211" />
      <stop
         style="stop-opacity:1;stop-color:#97caed"
         offset="0.25381023"
         id="stop213" />
      <stop
         style="stop-opacity:1;stop-color:#03649b"
         offset="0.52121"
         id="stop215" />
      <stop
         style="stop-opacity:1;stop-color:#074f89"
         offset="1"
         id="stop217" />
    </linearGradient>
    <clipPath
       clipPathUnits="userSpaceOnUse"
       id="clipPath229">
      <path
         d="M 0,228.975 H 243.963 V 0 H 0 Z"
         id="path227" />
    </clipPath>
    <clipPath
       clipPathUnits="userSpaceOnUse"
       id="clipPath237">
      <path
         d="M 96.0479,135.189 H 146.471 V 82.9531 H 96.0479 Z"
         id="path235" />
    </clipPath>
  </defs>
  <sodipodi:namedview
     id="namedview11"
     pagecolor="#ffffff"
     bordercolor="#000000"
     borderopacity="0.25"
     inkscape:showpageshadow="2"
     inkscape:pageopacity="0.0"
     inkscape:pagecheckerboard="0"
     inkscape:deskcolor="#d1d1d1"
     showgrid="false"
     inkscape:zoom="2.5384869"
     inkscape:cx="162.69535"
     inkscape:cy="113.25645"
     inkscape:window-width="1920"
     inkscape:window-height="991"
     inkscape:window-x="-9"
     inkscape:window-y="-9"
     inkscape:window-maximized="1"
     inkscape:current-layer="g17">
    <inkscape:page
       x="0"
       y="0"
       id="page15"
       width="325.284"
       height="305.29999" />
  </sodipodi:namedview>
  <g
     id="g17"
     inkscape:groupmode="layer"
     inkscape:label="Page 1"
     transform="matrix(1.3333333,0,0,-1.3333333,0,305.3)">
    <g
       id="g91">
      <g
         id="g93"
         clip-path="url(#clipPath97)">
        <g
           id="g99">
          <g
             id="g101">
            <path
               d="M 92.911,151.515 79.229,137.686 c -1.137,-1.145 -1.75,-2.705 -1.711,-4.318 v 0 c 0.043,-1.614 0.743,-3.137 1.933,-4.224 v 0 c 3.674,-3.346 5.352,-6.897 5.447,-11.505 v 0 c 0.047,-2.301 -0.835,-3.501 -2.845,-5.985 v 0 c -2.098,-2.613 -4.978,-6.183 -5.209,-11.749 v 0 C 75.877,76.711 101.377,56.992 118.753,49.394 v 0 c 0.753,-0.33 1.555,-0.493 2.358,-0.495 v 0 c 0.835,-0.004 1.671,0.17 2.446,0.52 v 0 c 19.935,8.987 42.909,27.544 42.077,50.266 v 0 c -0.205,5.566 -3.071,9.151 -5.157,11.774 v 0 c -1.994,2.497 -2.871,3.696 -2.812,5.997 v 0 c 0.12,4.611 1.813,8.152 5.508,11.477 v 0 c 1.198,1.084 1.899,2.603 1.948,4.217 v 0 c 0.052,1.612 -0.557,3.173 -1.687,4.328 v 0 l -13.612,13.893 c -1.11,1.134 -2.631,1.776 -4.216,1.78 v 0 l -48.471,0.121 c -0.005,0 -0.011,0 -0.017,0 v 0 c -1.582,0 -3.093,-0.635 -4.207,-1.757"
               style="fill:url(#linearGradient109);stroke:none"
               id="path111" />
          </g>
        </g>
      </g>
    </g>
    <g
       id="g113">
      <g
         id="g115"
         clip-path="url(#clipPath119)">
        <g
           id="g121">
          <g
             id="g123">
            <path
               d="M 93.511,150.917 79.826,137.09 c -0.963,-0.982 -1.497,-2.318 -1.458,-3.702 v 0 c 0.035,-1.381 0.632,-2.688 1.655,-3.62 v 0 c 3.802,-3.47 5.625,-7.316 5.721,-12.114 v 0 c 0.053,-2.585 -1.002,-4.016 -3.029,-6.534 v 0 c -2.142,-2.657 -4.805,-5.963 -5.028,-11.252 v 0 C 76.738,77.101 101.93,57.672 119.09,50.167 v 0 c 0.647,-0.28 1.333,-0.424 2.021,-0.425 v 0 c 0.718,-0.002 1.433,0.148 2.101,0.451 v 0 c 19.687,8.877 42.392,27.157 41.575,49.46 v 0 c -0.196,5.29 -2.842,8.607 -4.971,11.276 v 0 c -2.016,2.525 -3.062,3.965 -2.997,6.549 v 0 c 0.122,4.796 1.959,8.635 5.786,12.086 v 0 c 1.028,0.925 1.631,2.23 1.669,3.609 v 0 c 0.044,1.384 -0.477,2.722 -1.444,3.711 v 0 l -13.611,13.896 c -0.952,0.972 -2.254,1.522 -3.613,1.524 v 0 l -48.477,0.121 c -0.006,0 -0.011,0 -0.017,0 v 0 c -1.353,0 -2.65,-0.543 -3.601,-1.508"
               style="fill:url(#linearGradient133);stroke:none"
               id="path135" />
          </g>
        </g>
      </g>
    </g>
    <g
       id="g137">
      <g
         id="g139"
         clip-path="url(#clipPath143)">
        <g
           id="g145">
          <g
             id="g147">
            <path
               d="M 95.315,149.133 81.636,135.308 c -0.488,-0.493 -0.752,-1.161 -0.735,-1.853 v 0 c 0.018,-0.692 0.317,-1.343 0.83,-1.809 v 0 c 4.353,-3.968 6.439,-8.4 6.55,-13.938 v 0 c 0.076,-3.631 -1.625,-5.74 -3.588,-8.181 v 0 c -2.01,-2.488 -4.283,-5.309 -4.472,-9.766 v 0 C 79.328,78.269 103.583,59.717 120.109,52.494 v 0 c 0.32,-0.143 0.666,-0.217 1.009,-0.217 v 0 c 0.36,0 0.717,0.079 1.054,0.228 v 0 c 20.47,9.228 40.799,27.359 40.081,47.053 v 0 c -0.168,4.456 -2.426,7.286 -4.421,9.788 v 0 c -1.954,2.45 -3.641,4.568 -3.55,8.197 v 0 c 0.14,5.541 2.25,9.959 6.62,13.905 v 0 c 0.516,0.462 0.814,1.115 0.838,1.806 v 0 c 0.023,0.691 -0.237,1.361 -0.72,1.856 v 0 l -13.614,13.894 c -0.476,0.487 -1.125,0.759 -1.806,0.76 v 0 l -48.477,0.121 c -0.68,0.001 -1.33,-0.268 -1.808,-0.752"
               style="fill:url(#linearGradient163);stroke:none"
               id="path165" />
          </g>
        </g>
      </g>
    </g>
    <g
       id="g167">
      <g
         id="g169"
         clip-path="url(#clipPath173)">
        <g
           id="g175">
          <g
             id="g177">
            <path
               d="m 82.229,134.559 c 5.399,-4.918 7.497,-10.378 7.617,-16.267 v 0 c 0.178,-8.937 -7.987,-10.809 -8.318,-18.681 v 0 C 80.714,80.044 103.036,61.248 121.123,53.339 v 0 c 19.659,8.866 40.541,26.504 39.823,46.075 v 0 c -0.292,7.875 -8.452,9.782 -8.226,18.72 v 0 c 0.152,5.891 2.273,11.339 7.699,16.23 v 0 l -14.048,14.338 -50.024,0.126 z"
               style="fill:url(#linearGradient193);stroke:none"
               id="path195" />
          </g>
        </g>
      </g>
    </g>
    <g
       id="g197">
      <g
         id="g199"
         clip-path="url(#clipPath203)">
        <g
           id="g205">
          <g
             id="g207">
            <path
               d="m 82.618,134.172 c 2.306,-2.183 3.982,-4.478 5.13,-6.862 v 0 l 29.15,21.467 -14.393,0.034 z m 7.137,-17.557 c -0.782,-7.428 -7.729,-9.59 -8.22,-16.695 v 0 l 65.422,48.17 -0.603,0.612 -12.97,0.033 z M 83.228,88.991 c 0.952,-2.663 2.261,-5.271 3.849,-7.801 v 0 l 72.861,53.646 -6.058,6.181 z m 9.796,-15.6 c 1.922,-2.122 4.009,-4.153 6.203,-6.072 v 0 l 56.792,41.818 c -1.691,2.204 -3.203,4.611 -3.317,8.194 v 0 z m 14.26,-12.316 c 2.61,-1.787 5.264,-3.4 7.894,-4.824 v 0 l 44.025,32.413 c 1.231,3.487 1.857,7.085 1.72,10.751 v 0 c -0.009,0.37 -0.053,0.731 -0.097,1.079 v 0 z"
               style="fill:url(#linearGradient219);stroke:none"
               id="path221" />
          </g>
        </g>
      </g>
    </g>
    <g
       id="g223">
      <g
         id="g225"
         clip-path="url(#clipPath229)">
        <g
           id="g231">
          <g
             id="g233" />
          <g
             id="g293">
            <g
               clip-path="url(#clipPath237)"
               opacity="0.75"
               id="g291">
              <g
                 transform="translate(99.6836,121.7563)"
                 id="g241">
                <path
                   d="M 0,0 C 0.352,-0.05 0.773,-0.052 1.383,-0.052 3.003,-0.058 4.433,0.575 4.438,2.239 4.444,3.809 3.015,4.446 1.23,4.453 L 0.009,4.454 Z M 0.021,7.011 1.189,7.007 C 3.088,7.004 4.078,7.771 4.078,8.947 4.084,10.143 3.17,10.774 1.553,10.78 0.756,10.782 0.308,10.737 0.029,10.691 Z m -3.531,6.057 c 0.941,0.162 2.816,0.321 4.62,0.317 C 3.293,13.379 4.629,13.163 5.801,12.482 6.902,11.894 7.673,10.811 7.667,9.36 7.664,7.977 6.838,6.688 5.057,6.01 V 5.966 C 6.861,5.493 8.194,4.106 8.188,2.089 8.188,0.633 7.523,-0.489 6.536,-1.284 5.388,-2.193 3.466,-2.703 0.325,-2.696 c -1.761,0.005 -3.073,0.124 -3.87,0.242 z"
                   style="fill:#0f1e2a;fill-opacity:1;fill-rule:nonzero;stroke:none"
                   id="path239" />
              </g>
              <g
                 transform="translate(119.7197,125.8569)"
                 id="g245">
                <path
                   d="M 0,0 -5.818,0.014 -5.83,-3.737 0.668,-3.755 0.662,-6.687 -9.396,-6.663 -9.357,9.141 0.372,9.119 0.369,6.186 -5.801,6.202 -5.81,2.921 0.006,2.906 Z"
                   style="fill:#0f1e2a;fill-opacity:1;fill-rule:nonzero;stroke:none"
                   id="path243" />
              </g>
              <g
                 transform="translate(122.9453,122.8467)"
                 id="g249">
                <path
                   d="m 0,0 c 0.938,-0.497 2.438,-0.991 3.961,-0.995 1.641,-0.003 2.511,0.674 2.514,1.704 0.003,0.983 -0.747,1.55 -2.646,2.212 -2.625,0.945 -4.353,2.404 -4.35,4.699 0.008,2.699 2.288,4.732 5.994,4.722 1.804,-0.004 3.09,-0.358 4.031,-0.806 L 8.698,8.677 C 8.089,8.984 6.943,9.432 5.417,9.436 3.87,9.44 3.12,8.715 3.117,7.917 3.114,6.908 3.979,6.461 6.041,5.681 8.83,4.642 10.113,3.187 10.11,0.957 10.099,-1.69 8.08,-3.935 3.744,-3.923 1.939,-3.919 0.158,-3.422 -0.729,-2.928 Z"
                   style="fill:#0f1e2a;fill-opacity:1;fill-rule:nonzero;stroke:none"
                   id="path247" />
              </g>
              <g
                 transform="translate(138.5869,131.9272)"
                 id="g253">
                <path
                   d="M 0,0 -4.269,0.01 -4.263,3.011 7.884,2.982 7.872,-0.019 3.56,-0.007 3.527,-12.813 l -3.562,0.012 z"
                   style="fill:#0f1e2a;fill-opacity:1;fill-rule:nonzero;stroke:none"
                   id="path251" />
              </g>
              <g
                 transform="translate(99.5957,85.7832)"
                 id="g257">
                <path
                   d="M 0,0 C 0.352,-0.048 0.773,-0.049 1.383,-0.05 3,-0.055 4.433,0.577 4.436,2.244 4.438,3.813 3.012,4.448 1.23,4.455 L 0.012,4.456 Z M 0.018,7.011 1.187,7.008 c 1.895,-0.006 2.888,0.767 2.894,1.94 0,1.196 -0.914,1.83 -2.528,1.835 -0.8,0.001 -1.248,-0.044 -1.527,-0.092 z M -3.51,13.07 c 0.938,0.161 2.813,0.321 4.623,0.315 C 3.29,13.379 4.629,13.166 5.798,12.481 6.896,11.895 7.67,10.814 7.664,9.359 7.661,7.979 6.838,6.692 5.054,6.015 V 5.965 C 6.858,5.496 8.194,4.107 8.188,2.092 8.186,0.636 7.521,-0.488 6.536,-1.279 5.388,-2.193 3.463,-2.703 0.319,-2.695 c -1.757,0.005 -3.067,0.126 -3.867,0.243 z"
                   style="fill:#0f1e2a;fill-opacity:1;fill-rule:nonzero;stroke:none"
                   id="path255" />
              </g>
              <g
                 transform="translate(119.6289,89.8867)"
                 id="g261">
                <path
                   d="M 0,0 -5.815,0.014 -5.824,-3.737 0.668,-3.756 0.662,-6.685 -9.393,-6.661 -9.357,9.144 0.372,9.121 0.366,6.188 -5.801,6.201 -5.81,2.919 0.009,2.907 Z"
                   style="fill:#0f1e2a;fill-opacity:1;fill-rule:nonzero;stroke:none"
                   id="path259" />
              </g>
              <g
                 transform="translate(122.8574,86.877)"
                 id="g265">
                <path
                   d="m 0,0 c 0.935,-0.494 2.435,-0.991 3.958,-0.994 1.641,-0.004 2.514,0.672 2.514,1.705 0.003,0.981 -0.744,1.547 -2.643,2.21 -2.625,0.945 -4.356,2.401 -4.35,4.701 0.005,2.692 2.288,4.726 5.991,4.718 1.804,-0.004 3.093,-0.358 4.031,-0.806 L 8.698,8.674 C 8.086,8.984 6.938,9.43 5.414,9.436 3.87,9.438 3.117,8.713 3.114,7.915 3.114,6.907 3.979,6.461 6.041,5.683 8.824,4.642 10.11,3.186 10.107,0.957 10.096,-1.689 8.077,-3.935 3.741,-3.924 c -1.804,0.006 -3.586,0.5 -4.476,0.996 z"
                   style="fill:#0f1e2a;fill-opacity:1;fill-rule:nonzero;stroke:none"
                   id="path263" />
              </g>
              <g
                 transform="translate(138.4961,95.9561)"
                 id="g269">
                <path
                   d="M 0,0 -4.269,0.011 -4.263,3.014 7.881,2.986 7.875,-0.019 3.563,-0.007 3.53,-12.809 -0.029,-12.8 Z"
                   style="fill:#0f1e2a;fill-opacity:1;fill-rule:nonzero;stroke:none"
                   id="path267" />
              </g>
              <g
                 transform="translate(97.7002,109.0771)"
                 id="g273">
                <path
                   d="M 0,0 C -0.009,-2.503 1.33,-4.73 3.712,-4.738 6.091,-4.743 7.444,-2.555 7.447,0.084 7.456,2.411 6.255,4.83 3.753,4.837 1.254,4.843 0.009,2.533 0,0 M 9.035,0.147 C 9.026,-3.835 6.589,-5.966 3.624,-5.959 0.533,-5.95 -1.597,-3.546 -1.588,-0.03 -1.579,3.658 0.703,6.064 3.812,6.058 6.999,6.05 9.044,3.612 9.035,0.147"
                   style="fill:#0f1e2a;fill-opacity:1;fill-rule:nonzero;stroke:none"
                   id="path271" />
              </g>
              <g
                 transform="translate(108.6865,114.9106)"
                 id="g277">
                <path
                   d="m 0,0 6.258,-0.015 v -1.261 l -4.743,0.014 -0.009,-3.863 4.38,-0.011 v -1.24 l -4.383,0.008 -0.015,-5.257 -1.517,0.003 z"
                   style="fill:#0f1e2a;fill-opacity:1;fill-rule:nonzero;stroke:none"
                   id="path275" />
              </g>
              <g
                 transform="translate(122.2656,113.6006)"
                 id="g281">
                <path
                   d="m 0,0 -3.536,0.007 v 1.28 L 5.068,1.264 v -1.277 l -3.553,0.01 -0.027,-10.345 -1.514,0.003 z"
                   style="fill:#0f1e2a;fill-opacity:1;fill-rule:nonzero;stroke:none"
                   id="path279" />
              </g>
              <g
                 transform="translate(130.1348,114.8604)"
                 id="g285">
                <path
                   d="M 0,0 -0.012,-4.867 5.61,-4.88 5.622,-0.015 7.14,-0.018 7.11,-11.642 l -1.517,0.003 0.014,5.451 -5.622,0.015 -0.014,-5.452 -1.518,0.004 0.029,11.624 z"
                   style="fill:#0f1e2a;fill-opacity:1;fill-rule:nonzero;stroke:none"
                   id="path283" />
              </g>
              <g
                 transform="translate(145.8701,108.6475)"
                 id="g289">
                <path
                   d="M 0,0 -4.503,0.009 -4.512,-4.182 0.524,-4.193 0.521,-5.451 -6.032,-5.435 -6.003,6.188 0.287,6.173 0.284,4.914 -4.491,4.923 -4.497,1.249 0.003,1.237 Z"
                   style="fill:#0f1e2a;fill-opacity:1;fill-rule:nonzero;stroke:none"
                   id="path287" />
              </g>
            </g>
          </g>
        </g>
        <g
           id="g295"
           transform="translate(99.6836,120.7295)">
          <path
             d="M 0,0 C 0.352,-0.05 0.773,-0.052 1.383,-0.052 3.003,-0.058 4.433,0.575 4.438,2.239 4.444,3.809 3.015,4.446 1.23,4.453 L 0.009,4.454 Z M 0.021,7.011 1.189,7.007 C 3.088,7.004 4.078,7.771 4.078,8.947 4.084,10.143 3.17,10.774 1.553,10.78 0.756,10.782 0.308,10.737 0.029,10.691 Z m -3.531,6.057 c 0.941,0.162 2.816,0.321 4.62,0.317 C 3.293,13.379 4.629,13.163 5.801,12.482 6.902,11.894 7.673,10.811 7.667,9.36 7.664,7.977 6.838,6.688 5.057,6.01 V 5.966 C 6.861,5.493 8.194,4.106 8.188,2.089 8.188,0.633 7.523,-0.489 6.536,-1.284 5.388,-2.193 3.466,-2.703 0.325,-2.696 c -1.761,0.005 -3.073,0.124 -3.87,0.242 z"
             style="fill:#ffffff;fill-opacity:1;fill-rule:nonzero;stroke:none"
             id="path297" />
        </g>
        <g
           id="g299"
           transform="translate(119.7197,124.8301)">
          <path
             d="M 0,0 -5.818,0.014 -5.83,-3.737 0.668,-3.755 0.662,-6.687 -9.396,-6.663 -9.357,9.141 0.372,9.119 0.369,6.186 -5.801,6.202 -5.81,2.921 0.006,2.906 Z"
             style="fill:#ffffff;fill-opacity:1;fill-rule:nonzero;stroke:none"
             id="path301" />
        </g>
        <g
           id="g303"
           transform="translate(122.9453,121.8198)">
          <path
             d="m 0,0 c 0.938,-0.497 2.438,-0.991 3.961,-0.995 1.641,-0.003 2.511,0.674 2.514,1.704 0.003,0.983 -0.747,1.55 -2.646,2.212 -2.625,0.945 -4.353,2.404 -4.35,4.699 0.008,2.699 2.288,4.732 5.994,4.722 1.804,-0.004 3.09,-0.358 4.031,-0.806 L 8.698,8.677 C 8.089,8.984 6.943,9.432 5.417,9.436 3.87,9.44 3.12,8.715 3.117,7.917 3.114,6.908 3.979,6.461 6.041,5.681 8.83,4.642 10.113,3.187 10.11,0.957 10.099,-1.69 8.08,-3.935 3.744,-3.923 1.939,-3.919 0.158,-3.422 -0.729,-2.928 Z"
             style="fill:#ffffff;fill-opacity:1;fill-rule:nonzero;stroke:none"
             id="path305" />
        </g>
        <g
           id="g307"
           transform="translate(138.5869,130.9004)">
          <path
             d="M 0,0 -4.269,0.01 -4.263,3.011 7.884,2.982 7.872,-0.019 3.56,-0.007 3.527,-12.813 l -3.562,0.012 z"
             style="fill:#ffffff;fill-opacity:1;fill-rule:nonzero;stroke:none"
             id="path309" />
        </g>
        <g
           id="g311"
           transform="translate(99.5957,84.7559)">
          <path
             d="M 0,0 C 0.352,-0.048 0.773,-0.049 1.383,-0.05 3,-0.054 4.433,0.578 4.436,2.245 4.438,3.813 3.012,4.449 1.23,4.455 L 0.012,4.457 Z M 0.018,7.012 1.187,7.009 c 1.895,-0.006 2.888,0.766 2.894,1.94 0,1.196 -0.914,1.83 -2.528,1.834 -0.8,0.001 -1.248,-0.044 -1.527,-0.092 z m -3.528,6.059 c 0.938,0.161 2.813,0.321 4.623,0.315 C 3.29,13.38 4.629,13.167 5.798,12.481 6.896,11.896 7.67,10.815 7.664,9.359 7.661,7.979 6.838,6.692 5.054,6.016 V 5.966 C 6.858,5.496 8.194,4.108 8.188,2.092 8.186,0.637 7.521,-0.487 6.536,-1.279 5.388,-2.192 3.463,-2.703 0.319,-2.695 c -1.757,0.005 -3.067,0.126 -3.867,0.244 z"
             style="fill:#ffffff;fill-opacity:1;fill-rule:nonzero;stroke:none"
             id="path313" />
        </g>
        <g
           id="g315"
           transform="translate(119.6289,88.8594)">
          <path
             d="M 0,0 -5.815,0.014 -5.824,-3.737 0.668,-3.755 0.662,-6.684 -9.393,-6.66 -9.357,9.144 0.372,9.121 0.366,6.188 -5.801,6.201 -5.81,2.92 0.009,2.908 Z"
             style="fill:#ffffff;fill-opacity:1;fill-rule:nonzero;stroke:none"
             id="path317" />
        </g>
        <g
           id="g319"
           transform="translate(122.8574,85.8496)">
          <path
             d="m 0,0 c 0.935,-0.494 2.435,-0.99 3.958,-0.994 1.641,-0.004 2.514,0.672 2.514,1.705 0.003,0.982 -0.744,1.548 -2.643,2.211 -2.625,0.944 -4.356,2.401 -4.35,4.701 0.005,2.691 2.288,4.725 5.991,4.717 1.804,-0.004 3.093,-0.358 4.031,-0.805 L 8.698,8.674 C 8.086,8.985 6.938,9.431 5.414,9.436 3.87,9.438 3.117,8.714 3.114,7.915 3.114,6.908 3.979,6.461 6.041,5.683 8.824,4.642 10.11,3.186 10.107,0.957 c -0.011,-2.646 -2.03,-4.892 -6.366,-4.88 -1.804,0.005 -3.586,0.5 -4.476,0.996 z"
             style="fill:#ffffff;fill-opacity:1;fill-rule:nonzero;stroke:none"
             id="path321" />
        </g>
        <g
           id="g323"
           transform="translate(138.4961,94.9297)">
          <path
             d="M 0,0 -4.269,0.01 -4.263,3.014 7.881,2.985 7.875,-0.02 3.563,-0.007 3.53,-12.81 l -3.559,0.009 z"
             style="fill:#ffffff;fill-opacity:1;fill-rule:nonzero;stroke:none"
             id="path325" />
        </g>
        <g
           id="g327"
           transform="translate(97.7002,108.0508)">
          <path
             d="M 0,0 C -0.009,-2.504 1.33,-4.731 3.712,-4.738 6.091,-4.744 7.444,-2.555 7.447,0.084 7.456,2.41 6.255,4.829 3.753,4.836 1.254,4.843 0.009,2.532 0,0 M 9.035,0.146 C 9.026,-3.836 6.589,-5.966 3.624,-5.959 0.533,-5.95 -1.597,-3.547 -1.588,-0.031 -1.579,3.658 0.703,6.064 3.812,6.058 6.999,6.049 9.044,3.611 9.035,0.146"
             style="fill:#ffffff;fill-opacity:1;fill-rule:nonzero;stroke:none"
             id="path329" />
        </g>
        <g
           id="g331"
           transform="translate(108.6865,113.8838)">
          <path
             d="m 0,0 6.258,-0.015 v -1.261 l -4.743,0.014 -0.009,-3.862 4.38,-0.013 v -1.24 l -4.383,0.01 -0.015,-5.259 -1.517,0.005 z"
             style="fill:#ffffff;fill-opacity:1;fill-rule:nonzero;stroke:none"
             id="path333" />
        </g>
        <g
           id="g335"
           transform="translate(122.2656,112.5742)">
          <path
             d="M 0,0 -3.536,0.007 V 1.286 L 5.068,1.264 v -1.278 l -3.553,0.01 -0.027,-10.344 -1.514,0.002 z"
             style="fill:#ffffff;fill-opacity:1;fill-rule:nonzero;stroke:none"
             id="path337" />
        </g>
        <g
           id="g339"
           transform="translate(130.1348,113.8335)">
          <path
             d="m 0,0 -0.012,-4.867 5.622,-0.012 0.012,4.864 1.518,-0.003 -0.03,-11.623 -1.517,0.002 0.014,5.452 -5.622,0.014 -0.014,-5.452 -1.518,0.004 0.029,11.624 z"
             style="fill:#ffffff;fill-opacity:1;fill-rule:nonzero;stroke:none"
             id="path341" />
        </g>
        <g
           id="g343"
           transform="translate(145.8701,107.6201)">
          <path
             d="M 0,0 -4.503,0.01 -4.512,-4.181 0.524,-4.193 0.521,-5.451 -6.032,-5.435 -6.003,6.188 0.287,6.174 0.284,4.914 -4.491,4.924 -4.497,1.249 0.003,1.238 Z"
             style="fill:#ffffff;fill-opacity:1;fill-rule:nonzero;stroke:none"
             id="path345" />
        </g>
      </g>
    </g>
  </g>
</svg>
